<svg t="1733658900939" class="icon" viewBox="0 0 1024 1024" version="1.1" xmlns="http://www.w3.org/2000/svg" p-id="4003" width="200" height="200"><path d="M541.44 713.557333l-94.549333 90.069334Q478.592 810.666667 512 810.666667q123.733333 0 211.2-87.466667Q810.666667 635.733333 810.666667 512q0-123.733333-87.466667-211.2Q635.733333 213.333333 512 213.333333 388.266667 213.333333 300.8 300.8 213.333333 388.266667 213.333333 512q0 54.613333 19.072 105.258667a42.666667 42.666667 0 0 1 2.730667 14.293333v0.725333a42.666667 42.666667 0 0 1-42.325333 42.666667H192.426667a42.666667 42.666667 0 0 1-39.936-27.605333v-0.085334Q128 582.144 128 512q0-78.08 30.208-149.504 29.141333-68.906667 82.261333-122.026667 53.12-53.12 122.026667-82.261333Q433.92 128 512 128t149.461333 30.208q68.949333 29.141333 122.069334 82.261333 53.12 53.12 82.261333 122.026667Q896 433.92 896 512t-30.208 149.461333q-29.141333 68.949333-82.261333 122.069334-53.12 53.12-122.026667 82.261333Q590.08 896 512 896q-86.058667 0-163.370667-36.394667a42.624 42.624 0 0 1-11.264-69.504l145.194667-138.325333a42.666667 42.666667 0 0 1 28.245333-11.776H512a42.666667 42.666667 0 0 1 42.666667 41.472V682.666667a42.666667 42.666667 0 0 1-13.226667 30.890666z" p-id="4004" fill="#8a8a8a"></path></svg>