<svg t="1733657282416" class="icon" viewBox="0 0 1024 1024" version="1.1" xmlns="http://www.w3.org/2000/svg" p-id="3231" width="200" height="200"><path d="M810.666667 384v341.333333q0 88.362667-62.506667 150.826667Q685.738667 938.666667 597.333333 938.666667h-170.666666q-88.362667 0-150.869334-62.506667Q213.333333 813.738667 213.333333 725.333333V384a42.666667 42.666667 0 1 1 85.333334 0v341.333333q0 53.034667 37.504 90.496Q373.632 853.333333 426.666667 853.333333h170.666666q53.034667 0 90.496-37.504Q725.333333 778.368 725.333333 725.333333V384a42.666667 42.666667 0 1 1 85.333334 0zM426.666667 85.333333a42.666667 42.666667 0 1 0 0 85.333334h170.666666a42.666667 42.666667 0 0 0 0-85.333334h-170.666666zM213.333333 213.333333a42.666667 42.666667 0 1 0 0 85.333334h597.333334a42.666667 42.666667 0 1 0 0-85.333334H213.333333z" p-id="3232" fill="#8a8a8a"></path><path d="M426.666667 554.666667a42.666667 42.666667 0 0 0-42.666667 42.666666v256a42.666667 42.666667 0 0 0 85.333333 0v-256a42.666667 42.666667 0 0 0-42.666666-42.666666zM597.333333 469.333333a42.666667 42.666667 0 0 0-42.666666 42.666667v341.333333a42.666667 42.666667 0 1 0 85.333333 0v-341.333333a42.666667 42.666667 0 0 0-42.666667-42.666667z" p-id="3233" fill="#8a8a8a"></path></svg>