<svg t="1733647987432" class="icon" viewBox="0 0 1024 1024" version="1.1" xmlns="http://www.w3.org/2000/svg" p-id="2674" width="200" height="200"><path d="M670.378667 534.613333l82.986666-82.944q37.504-37.504 37.504-90.496 0-53.034667-37.546666-90.538666-37.461333-37.461333-90.453334-37.461334-53.034667 0-90.538666 37.461334l-15.061334 15.104-67.882666 67.84a42.666667 42.666667 0 1 1-60.330667-60.288l67.84-67.882667 15.104-15.104q62.506667-62.464 150.869333-62.464 88.32 0 150.826667 62.464 62.506667 62.464 62.506667 150.869333 0 88.32-62.506667 150.826667l-82.944 82.986667a42.666667 42.666667 0 1 1-60.373333-60.373334z m-75.392 196.138667L512 813.653333q-62.464 62.506667-150.826667 62.506667-88.405333 0-150.869333-62.506667-62.464-62.464-62.464-150.826666T210.304 512l15.104-15.061333 67.84-67.882667a42.666667 42.666667 0 1 1 60.373333 60.330667l-67.882666 67.84-15.104 15.104q-37.461333 37.504-37.461334 90.538666 0 52.992 37.461334 90.453334 37.504 37.546667 90.538666 37.546666 52.992 0 90.453334-37.546666l82.986666-82.944a42.666667 42.666667 0 1 1 60.373334 60.373333z" p-id="2675" fill="#8a8a8a"></path><path d="M746.026667 632.661333h85.333333a42.666667 42.666667 0 1 1 0 85.333334h-85.333333a42.666667 42.666667 0 0 1 0-85.333334zM391.338667 277.973333v-85.333333a42.666667 42.666667 0 1 0-85.333334 0v85.333333a42.666667 42.666667 0 0 0 85.333334 0zM632.661333 821.034667v-85.333334a42.666667 42.666667 0 1 1 85.333334 0v85.333334a42.666667 42.666667 0 0 1-85.333334 0zM202.965333 391.338667h85.333334a42.666667 42.666667 0 1 0 0-85.333334h-85.333334a42.666667 42.666667 0 0 0 0 85.333334z" p-id="2676" fill="#8a8a8a"></path></svg>