<svg t="1733664296173" class="icon" viewBox="0 0 1024 1024" version="1.1" xmlns="http://www.w3.org/2000/svg" p-id="1954" width="200" height="200"><path d="M512 896a384 384 0 1 0 0-768 384 384 0 0 0 0 768z m0-682.666667a298.666667 298.666667 0 1 1 0 597.333334 298.666667 298.666667 0 0 1 0-597.333334z" p-id="1955" fill="#eeb171"></path><path d="M328.832 545.194667l120.704 120.704a42.538667 42.538667 0 0 0 60.330667 0l241.365333-241.365334a42.666667 42.666667 0 1 0-60.373333-60.330666l-211.2 211.2-90.453334-90.538667a42.666667 42.666667 0 1 0-60.373333 60.330667z" p-id="1956" fill="#eeb171"></path></svg>